<?xml version="1.0" encoding="utf-8"?>
<!-- Generator: Adobe Illustrator 19.2.1, SVG Export Plug-In . SVG Version: 6.00 Build 0)  -->
<svg version="1.1" id="Layer_1" xmlns="http://www.w3.org/2000/svg" xmlns:xlink="http://www.w3.org/1999/xlink" x="0px" y="0px"
	 width="226.3px" height="12.4px" viewBox="0 0 226.3 12.4" style="enable-background:new 0 0 226.3 12.4;" xml:space="preserve">
<style type="text/css">
	.st0{fill:#777777;}
</style>
<g>
	<path class="st0" d="M6.9,9.4h-1V5.8H1.9v3.6h-1V1.6h1V5h3.9V1.6h1V9.4z"/>
	<path class="st0" d="M11,9.5c-0.8,0-1.4-0.3-1.9-0.8C8.6,8.2,8.3,7.5,8.3,6.7V6.5c0-0.6,0.1-1.1,0.3-1.5c0.2-0.5,0.5-0.8,0.9-1.1
		c0.4-0.3,0.8-0.4,1.3-0.4c0.8,0,1.3,0.2,1.8,0.7s0.6,1.2,0.6,2.1v0.4H9.3c0,0.6,0.2,1,0.5,1.4c0.3,0.4,0.7,0.5,1.2,0.5
		c0.4,0,0.6-0.1,0.9-0.2s0.5-0.3,0.6-0.6l0.6,0.5C12.7,9.1,12,9.5,11,9.5z M10.9,4.3c-0.4,0-0.7,0.1-1,0.4C9.6,5,9.4,5.4,9.4,6h2.9
		V5.9c0-0.5-0.2-0.9-0.4-1.2C11.6,4.4,11.3,4.3,10.9,4.3z"/>
	<path class="st0" d="M17.2,4.5c-0.2,0-0.3,0-0.5,0c-0.7,0-1.1,0.3-1.3,0.8v4.1h-1V3.6h1l0,0.7c0.3-0.5,0.8-0.8,1.4-0.8
		c0.2,0,0.3,0,0.4,0.1V4.5z"/>
	<path class="st0" d="M17.8,6.5c0-0.6,0.1-1.1,0.3-1.5c0.2-0.5,0.5-0.8,0.9-1.1c0.4-0.2,0.9-0.4,1.4-0.4c0.8,0,1.4,0.3,1.9,0.8
		c0.5,0.5,0.7,1.3,0.7,2.2v0.1c0,0.6-0.1,1.1-0.3,1.5c-0.2,0.4-0.5,0.8-0.9,1c-0.4,0.3-0.9,0.4-1.4,0.4c-0.8,0-1.4-0.3-1.9-0.8
		C18,8.1,17.8,7.4,17.8,6.5L17.8,6.5z M18.8,6.6c0,0.6,0.1,1.2,0.4,1.6c0.3,0.4,0.7,0.6,1.2,0.6c0.5,0,0.9-0.2,1.2-0.6
		c0.3-0.4,0.4-1,0.4-1.7c0-0.6-0.2-1.2-0.5-1.5c-0.3-0.4-0.7-0.6-1.2-0.6c-0.5,0-0.9,0.2-1.2,0.6S18.8,5.8,18.8,6.6z"/>
	<path class="st0" d="M24.3,2.1c0-0.2,0-0.3,0.1-0.4c0.1-0.1,0.2-0.2,0.4-0.2s0.3,0.1,0.4,0.2s0.2,0.2,0.2,0.4s-0.1,0.3-0.2,0.4
		s-0.2,0.2-0.4,0.2s-0.3-0.1-0.4-0.2C24.4,2.4,24.3,2.2,24.3,2.1z M25.4,9.4h-1V3.6h1V9.4z"/>
	<path class="st0" d="M27.9,3.6l0,0.7c0.4-0.6,1-0.8,1.7-0.8c1.2,0,1.8,0.7,1.9,2.1v3.8h-1V5.6c0-0.4-0.1-0.7-0.3-0.9
		c-0.2-0.2-0.5-0.3-0.9-0.3c-0.3,0-0.6,0.1-0.8,0.3S28.1,5,28,5.3v4.1h-1V3.6H27.9z"/>
	<path class="st0" d="M33.1,8.9c0-0.2,0.1-0.3,0.2-0.4c0.1-0.1,0.3-0.2,0.5-0.2s0.4,0.1,0.5,0.2c0.1,0.1,0.2,0.3,0.2,0.4
		c0,0.2-0.1,0.3-0.2,0.4c-0.1,0.1-0.3,0.2-0.5,0.2s-0.4-0.1-0.5-0.2C33.1,9.2,33.1,9.1,33.1,8.9z"/>
	<path class="st0" d="M36.9,3.6l0,0.7c0.4-0.6,1-0.8,1.7-0.8c1.2,0,1.8,0.7,1.9,2.1v3.8h-1V5.6c0-0.4-0.1-0.7-0.3-0.9
		c-0.2-0.2-0.5-0.3-0.9-0.3c-0.3,0-0.6,0.1-0.8,0.3S37.1,5,36.9,5.3v4.1h-1V3.6H36.9z"/>
	<path class="st0" d="M44.4,9.5c-0.8,0-1.4-0.3-1.9-0.8c-0.5-0.5-0.7-1.2-0.7-2.1V6.5c0-0.6,0.1-1.1,0.3-1.5
		c0.2-0.5,0.5-0.8,0.9-1.1c0.4-0.3,0.8-0.4,1.3-0.4c0.8,0,1.3,0.2,1.8,0.7s0.6,1.2,0.6,2.1v0.4h-3.9c0,0.6,0.2,1,0.5,1.4
		c0.3,0.4,0.7,0.5,1.2,0.5c0.4,0,0.6-0.1,0.9-0.2s0.5-0.3,0.6-0.6l0.6,0.5C46.1,9.1,45.4,9.5,44.4,9.5z M44.3,4.3
		c-0.4,0-0.7,0.1-1,0.4C43,5,42.9,5.4,42.8,6h2.9V5.9c0-0.5-0.2-0.9-0.4-1.2C45,4.4,44.7,4.3,44.3,4.3z"/>
	<path class="st0" d="M49.2,2.2v1.4h1.1v0.8h-1.1V8c0,0.2,0,0.4,0.1,0.5c0.1,0.1,0.3,0.2,0.5,0.2c0.1,0,0.3,0,0.5-0.1v0.8
		c-0.3,0.1-0.5,0.1-0.8,0.1c-0.4,0-0.8-0.1-1-0.4S48.2,8.5,48.2,8V4.4h-1.1V3.6h1.1V2.2H49.2z"/>
	<path class="st0" d="M54.2,2.1c0-0.2,0-0.3,0.1-0.4c0.1-0.1,0.2-0.2,0.4-0.2s0.3,0.1,0.4,0.2s0.2,0.2,0.2,0.4s-0.1,0.3-0.2,0.4
		s-0.2,0.2-0.4,0.2s-0.3-0.1-0.4-0.2C54.2,2.4,54.2,2.2,54.2,2.1z M55.2,9.4h-1V3.6h1V9.4z"/>
	<path class="st0" d="M60.2,7.9c0-0.3-0.1-0.5-0.3-0.6c-0.2-0.1-0.6-0.3-1.1-0.4c-0.5-0.1-0.9-0.2-1.2-0.4c-0.3-0.2-0.5-0.3-0.7-0.5
		c-0.1-0.2-0.2-0.5-0.2-0.7c0-0.5,0.2-0.9,0.6-1.2c0.4-0.3,0.9-0.5,1.5-0.5c0.7,0,1.2,0.2,1.6,0.5c0.4,0.3,0.6,0.8,0.6,1.3h-1
		c0-0.3-0.1-0.5-0.3-0.7c-0.2-0.2-0.5-0.3-0.9-0.3c-0.4,0-0.6,0.1-0.8,0.2s-0.3,0.4-0.3,0.6c0,0.2,0.1,0.4,0.3,0.5s0.5,0.2,1,0.3
		c0.5,0.1,0.9,0.2,1.2,0.4S60.8,6.8,61,7c0.1,0.2,0.2,0.5,0.2,0.8c0,0.5-0.2,0.9-0.6,1.2c-0.4,0.3-1,0.5-1.6,0.5
		c-0.5,0-0.9-0.1-1.2-0.2s-0.6-0.4-0.8-0.7c-0.2-0.3-0.3-0.6-0.3-1h1c0,0.3,0.2,0.6,0.4,0.8c0.2,0.2,0.6,0.3,1,0.3
		c0.4,0,0.7-0.1,0.9-0.2C60.1,8.3,60.2,8.1,60.2,7.9z"/>
	<path class="st0" d="M68.8,9.4c-0.1-0.1-0.1-0.3-0.1-0.6c-0.5,0.5-1,0.7-1.7,0.7c-0.6,0-1-0.2-1.4-0.5c-0.4-0.3-0.6-0.7-0.6-1.2
		c0-0.6,0.2-1.1,0.7-1.4c0.5-0.3,1.1-0.5,1.9-0.5h1V5.4c0-0.3-0.1-0.6-0.3-0.8c-0.2-0.2-0.5-0.3-0.9-0.3c-0.4,0-0.7,0.1-0.9,0.3
		S66.2,5,66.2,5.2h-1c0-0.3,0.1-0.6,0.3-0.8c0.2-0.3,0.5-0.5,0.8-0.6c0.4-0.2,0.7-0.2,1.2-0.2c0.7,0,1.2,0.2,1.6,0.5
		c0.4,0.3,0.6,0.8,0.6,1.4v2.7c0,0.5,0.1,1,0.2,1.3v0.1H68.8z M67.2,8.7c0.3,0,0.6-0.1,0.9-0.2s0.5-0.4,0.6-0.6V6.6h-0.8
		c-1.2,0-1.8,0.4-1.8,1.1c0,0.3,0.1,0.6,0.3,0.7S66.8,8.7,67.2,8.7z"/>
	<path class="st0" d="M78.8,6.6c0,0.9-0.2,1.6-0.6,2.1s-1,0.8-1.6,0.8c-0.7,0-1.3-0.2-1.7-0.7v2.8h-1v-8h0.9l0,0.6
		c0.4-0.5,1-0.8,1.7-0.8c0.7,0,1.3,0.3,1.7,0.8C78.6,4.8,78.8,5.5,78.8,6.6L78.8,6.6z M77.8,6.5c0-0.7-0.1-1.2-0.4-1.6
		s-0.7-0.6-1.1-0.6c-0.6,0-1.1,0.3-1.4,0.8v2.8c0.3,0.5,0.8,0.8,1.4,0.8c0.5,0,0.9-0.2,1.1-0.6C77.7,7.8,77.8,7.2,77.8,6.5z"/>
	<path class="st0" d="M82.9,4.5c-0.2,0-0.3,0-0.5,0c-0.7,0-1.1,0.3-1.3,0.8v4.1h-1V3.6h1l0,0.7c0.3-0.5,0.8-0.8,1.4-0.8
		c0.2,0,0.3,0,0.4,0.1V4.5z"/>
	<path class="st0" d="M83.5,6.5c0-0.6,0.1-1.1,0.3-1.5c0.2-0.5,0.5-0.8,0.9-1.1c0.4-0.2,0.9-0.4,1.4-0.4c0.8,0,1.4,0.3,1.9,0.8
		c0.5,0.5,0.7,1.3,0.7,2.2v0.1c0,0.6-0.1,1.1-0.3,1.5c-0.2,0.4-0.5,0.8-0.9,1c-0.4,0.3-0.9,0.4-1.4,0.4c-0.8,0-1.4-0.3-1.9-0.8
		C83.7,8.1,83.5,7.4,83.5,6.5L83.5,6.5z M84.4,6.6c0,0.6,0.1,1.2,0.4,1.6c0.3,0.4,0.7,0.6,1.2,0.6c0.5,0,0.9-0.2,1.2-0.6
		c0.3-0.4,0.4-1,0.4-1.7c0-0.6-0.2-1.2-0.5-1.5c-0.3-0.4-0.7-0.6-1.2-0.6c-0.5,0-0.9,0.2-1.2,0.6S84.4,5.8,84.4,6.6z"/>
	<path class="st0" d="M94.9,6.6c0,0.9-0.2,1.6-0.6,2.1s-1,0.8-1.6,0.8c-0.7,0-1.3-0.2-1.7-0.7v2.8h-1v-8h0.9l0,0.6
		c0.4-0.5,1-0.8,1.7-0.8c0.7,0,1.3,0.3,1.7,0.8C94.7,4.8,94.9,5.5,94.9,6.6L94.9,6.6z M93.9,6.5c0-0.7-0.1-1.2-0.4-1.6
		s-0.7-0.6-1.1-0.6c-0.6,0-1.1,0.3-1.4,0.8v2.8c0.3,0.5,0.8,0.8,1.4,0.8c0.5,0,0.9-0.2,1.1-0.6C93.8,7.8,93.9,7.2,93.9,6.5z"/>
	<path class="st0" d="M98.6,9.5c-0.8,0-1.4-0.3-1.9-0.8c-0.5-0.5-0.7-1.2-0.7-2.1V6.5c0-0.6,0.1-1.1,0.3-1.5
		c0.2-0.5,0.5-0.8,0.9-1.1c0.4-0.3,0.8-0.4,1.3-0.4c0.8,0,1.3,0.2,1.8,0.7s0.6,1.2,0.6,2.1v0.4h-3.9c0,0.6,0.2,1,0.5,1.4
		c0.3,0.4,0.7,0.5,1.2,0.5c0.4,0,0.6-0.1,0.9-0.2s0.5-0.3,0.6-0.6l0.6,0.5C100.3,9.1,99.5,9.5,98.6,9.5z M98.4,4.3
		c-0.4,0-0.7,0.1-1,0.4C97.2,5,97,5.4,96.9,6h2.9V5.9c0-0.5-0.2-0.9-0.4-1.2C99.2,4.4,98.9,4.3,98.4,4.3z"/>
	<path class="st0" d="M104.8,4.5c-0.2,0-0.3,0-0.5,0c-0.7,0-1.1,0.3-1.3,0.8v4.1h-1V3.6h1l0,0.7c0.3-0.5,0.8-0.8,1.4-0.8
		c0.2,0,0.3,0,0.4,0.1V4.5z"/>
	<path class="st0" d="M107.3,2.2v1.4h1.1v0.8h-1.1V8c0,0.2,0,0.4,0.1,0.5c0.1,0.1,0.3,0.2,0.5,0.2c0.1,0,0.3,0,0.5-0.1v0.8
		c-0.3,0.1-0.5,0.1-0.8,0.1c-0.4,0-0.8-0.1-1-0.4s-0.3-0.6-0.3-1.1V4.4h-1.1V3.6h1.1V2.2H107.3z"/>
	<path class="st0" d="M111.5,8l1.4-4.4h1.1l-2.3,6.7c-0.4,1-0.9,1.5-1.7,1.5l-0.2,0l-0.4-0.1v-0.8l0.3,0c0.3,0,0.6-0.1,0.8-0.2
		c0.2-0.1,0.3-0.4,0.5-0.7l0.2-0.6l-2.1-5.7h1.1L111.5,8z"/>
	<path class="st0" d="M117.2,6.5c0-0.6,0.1-1.1,0.3-1.5c0.2-0.5,0.5-0.8,0.9-1.1c0.4-0.2,0.9-0.4,1.4-0.4c0.8,0,1.4,0.3,1.9,0.8
		c0.5,0.5,0.7,1.3,0.7,2.2v0.1c0,0.6-0.1,1.1-0.3,1.5c-0.2,0.4-0.5,0.8-0.9,1c-0.4,0.3-0.9,0.4-1.4,0.4c-0.8,0-1.4-0.3-1.9-0.8
		C117.5,8.1,117.2,7.4,117.2,6.5L117.2,6.5z M118.2,6.6c0,0.6,0.1,1.2,0.4,1.6c0.3,0.4,0.7,0.6,1.2,0.6c0.5,0,0.9-0.2,1.2-0.6
		c0.3-0.4,0.4-1,0.4-1.7c0-0.6-0.2-1.2-0.5-1.5c-0.3-0.4-0.7-0.6-1.2-0.6c-0.5,0-0.9,0.2-1.2,0.6S118.2,5.8,118.2,6.6z"/>
	<path class="st0" d="M124.3,9.4v-5h-0.9V3.6h0.9V3c0-0.6,0.2-1.1,0.5-1.4s0.8-0.5,1.4-0.5c0.2,0,0.5,0,0.7,0.1l-0.1,0.8
		c-0.2,0-0.3,0-0.5,0c-0.3,0-0.6,0.1-0.7,0.3c-0.2,0.2-0.3,0.5-0.3,0.8v0.6h1.2v0.8h-1.2v5H124.3z"/>
	<path class="st0" d="M132.8,5.9c-0.9-0.3-1.5-0.6-1.9-0.9c-0.4-0.4-0.6-0.8-0.6-1.4c0-0.6,0.2-1.1,0.7-1.5c0.5-0.4,1.1-0.6,1.9-0.6
		c0.5,0,1,0.1,1.4,0.3c0.4,0.2,0.7,0.5,1,0.9c0.2,0.4,0.3,0.8,0.3,1.2h-1c0-0.5-0.2-0.8-0.5-1.1c-0.3-0.3-0.7-0.4-1.3-0.4
		c-0.5,0-0.9,0.1-1.2,0.3c-0.3,0.2-0.4,0.5-0.4,0.9c0,0.3,0.1,0.6,0.4,0.8c0.3,0.2,0.7,0.4,1.4,0.6c0.6,0.2,1.2,0.4,1.5,0.6
		c0.4,0.2,0.6,0.5,0.8,0.8c0.2,0.3,0.3,0.6,0.3,1c0,0.6-0.2,1.1-0.7,1.5c-0.5,0.4-1.2,0.6-2,0.6c-0.5,0-1-0.1-1.5-0.3
		c-0.5-0.2-0.8-0.5-1.1-0.8C130.1,8,130,7.6,130,7.1h1c0,0.5,0.2,0.8,0.5,1.1c0.3,0.3,0.8,0.4,1.4,0.4c0.5,0,1-0.1,1.3-0.3
		s0.4-0.5,0.4-0.9s-0.1-0.7-0.4-0.9C134,6.3,133.5,6.1,132.8,5.9z"/>
	<path class="st0" d="M136.6,6.5c0-0.6,0.1-1.1,0.3-1.5c0.2-0.5,0.5-0.8,0.9-1.1c0.4-0.2,0.9-0.4,1.4-0.4c0.8,0,1.4,0.3,1.9,0.8
		c0.5,0.5,0.7,1.3,0.7,2.2v0.1c0,0.6-0.1,1.1-0.3,1.5c-0.2,0.4-0.5,0.8-0.9,1c-0.4,0.3-0.9,0.4-1.4,0.4c-0.8,0-1.4-0.3-1.9-0.8
		C136.8,8.1,136.6,7.4,136.6,6.5L136.6,6.5z M137.6,6.6c0,0.6,0.1,1.2,0.4,1.6c0.3,0.4,0.7,0.6,1.2,0.6c0.5,0,0.9-0.2,1.2-0.6
		c0.3-0.4,0.4-1,0.4-1.7c0-0.6-0.2-1.2-0.5-1.5c-0.3-0.4-0.7-0.6-1.2-0.6c-0.5,0-0.9,0.2-1.2,0.6S137.6,5.8,137.6,6.6z"/>
	<path class="st0" d="M148,6.6c0,0.9-0.2,1.6-0.6,2.1c-0.4,0.5-1,0.8-1.6,0.8c-0.7,0-1.3-0.3-1.7-0.8l0,0.7h-0.9V1.2h1v3.1
		c0.4-0.5,1-0.7,1.7-0.7s1.3,0.3,1.7,0.8C147.8,4.8,148,5.6,148,6.6L148,6.6z M147,6.5c0-0.7-0.1-1.2-0.4-1.6s-0.6-0.6-1.1-0.6
		c-0.7,0-1.1,0.3-1.4,0.9v2.5c0.3,0.6,0.8,0.9,1.4,0.9c0.5,0,0.8-0.2,1.1-0.6S147,7.2,147,6.5z"/>
	<path class="st0" d="M151.7,9.5c-0.8,0-1.4-0.3-1.9-0.8c-0.5-0.5-0.7-1.2-0.7-2.1V6.5c0-0.6,0.1-1.1,0.3-1.5
		c0.2-0.5,0.5-0.8,0.9-1.1c0.4-0.3,0.8-0.4,1.3-0.4c0.8,0,1.3,0.2,1.8,0.7s0.6,1.2,0.6,2.1v0.4H150c0,0.6,0.2,1,0.5,1.4
		c0.3,0.4,0.7,0.5,1.2,0.5c0.4,0,0.6-0.1,0.9-0.2s0.5-0.3,0.6-0.6l0.6,0.5C153.4,9.1,152.7,9.5,151.7,9.5z M151.6,4.3
		c-0.4,0-0.7,0.1-1,0.4c-0.3,0.3-0.4,0.7-0.5,1.2h2.9V5.9c0-0.5-0.2-0.9-0.4-1.2C152.3,4.4,152,4.3,151.6,4.3z"/>
	<path class="st0" d="M157.9,4.5c-0.2,0-0.3,0-0.5,0c-0.7,0-1.1,0.3-1.3,0.8v4.1h-1V3.6h1l0,0.7c0.3-0.5,0.8-0.8,1.4-0.8
		c0.2,0,0.3,0,0.4,0.1V4.5z"/>
	<path class="st0" d="M163,1.6l2.6,6.4l2.6-6.4h1.3v7.8h-1v-3l0.1-3.3L166,9.4h-0.8l-2.6-6.3l0.1,3.3v3h-1V1.6H163z"/>
	<path class="st0" d="M173.6,9.5c-0.8,0-1.4-0.3-1.9-0.8c-0.5-0.5-0.7-1.2-0.7-2.1V6.5c0-0.6,0.1-1.1,0.3-1.5
		c0.2-0.5,0.5-0.8,0.9-1.1c0.4-0.3,0.8-0.4,1.3-0.4c0.8,0,1.3,0.2,1.8,0.7s0.6,1.2,0.6,2.1v0.4h-3.9c0,0.6,0.2,1,0.5,1.4
		c0.3,0.4,0.7,0.5,1.2,0.5c0.4,0,0.6-0.1,0.9-0.2s0.5-0.3,0.6-0.6l0.6,0.5C175.3,9.1,174.5,9.5,173.6,9.5z M173.4,4.3
		c-0.4,0-0.7,0.1-1,0.4C172.2,5,172,5.4,171.9,6h2.9V5.9c0-0.5-0.2-0.9-0.4-1.2C174.2,4.4,173.9,4.3,173.4,4.3z"/>
	<path class="st0" d="M176.7,6.5c0-0.9,0.2-1.6,0.6-2.2c0.4-0.5,1-0.8,1.7-0.8c0.7,0,1.2,0.2,1.6,0.7v-3h1v8.2h-0.9l0-0.6
		c-0.4,0.5-1,0.7-1.7,0.7c-0.7,0-1.2-0.3-1.6-0.8C177,8.1,176.7,7.4,176.7,6.5L176.7,6.5z M177.7,6.6c0,0.7,0.1,1.2,0.4,1.5
		c0.3,0.4,0.6,0.6,1.1,0.6c0.6,0,1.1-0.3,1.4-0.8V5.2c-0.3-0.5-0.8-0.8-1.4-0.8c-0.5,0-0.9,0.2-1.1,0.6
		C177.9,5.3,177.7,5.8,177.7,6.6z"/>
	<path class="st0" d="M183.2,2.1c0-0.2,0-0.3,0.1-0.4s0.2-0.2,0.4-0.2s0.3,0.1,0.4,0.2s0.2,0.2,0.2,0.4s0,0.3-0.2,0.4
		s-0.2,0.2-0.4,0.2s-0.3-0.1-0.4-0.2S183.2,2.2,183.2,2.1z M184.3,9.4h-1V3.6h1V9.4z"/>
	<path class="st0" d="M189.4,9.4c-0.1-0.1-0.1-0.3-0.1-0.6c-0.5,0.5-1,0.7-1.7,0.7c-0.6,0-1-0.2-1.4-0.5c-0.4-0.3-0.5-0.7-0.5-1.2
		c0-0.6,0.2-1.1,0.7-1.4c0.5-0.3,1.1-0.5,1.9-0.5h1V5.4c0-0.3-0.1-0.6-0.3-0.8c-0.2-0.2-0.5-0.3-0.9-0.3c-0.4,0-0.7,0.1-0.9,0.3
		s-0.4,0.4-0.4,0.6h-1c0-0.3,0.1-0.6,0.3-0.8c0.2-0.3,0.5-0.5,0.8-0.6s0.7-0.2,1.2-0.2c0.7,0,1.2,0.2,1.6,0.5
		c0.4,0.3,0.6,0.8,0.6,1.4v2.7c0,0.5,0.1,1,0.2,1.3v0.1H189.4z M187.8,8.7c0.3,0,0.6-0.1,0.9-0.2s0.5-0.4,0.6-0.6V6.6h-0.8
		c-1.2,0-1.8,0.4-1.8,1.1c0,0.3,0.1,0.6,0.3,0.7S187.5,8.7,187.8,8.7z"/>
	<path class="st0" d="M200.5,8.4c-0.3,0.4-0.6,0.7-1.1,0.9c-0.5,0.2-1,0.3-1.7,0.3c-0.6,0-1.2-0.1-1.7-0.4c-0.5-0.3-0.9-0.7-1.1-1.3
		s-0.4-1.2-0.4-1.9V5.2c0-1.2,0.3-2.1,0.8-2.7s1.3-1,2.3-1c0.8,0,1.5,0.2,2,0.6c0.5,0.4,0.8,1,0.9,1.8h-1c-0.2-1-0.8-1.6-1.8-1.6
		c-0.7,0-1.2,0.2-1.6,0.7c-0.4,0.5-0.5,1.2-0.5,2.1v0.6c0,0.9,0.2,1.6,0.6,2.1c0.4,0.5,0.9,0.8,1.6,0.8c0.4,0,0.7,0,1-0.1
		c0.3-0.1,0.5-0.2,0.7-0.4V6.4h-1.8V5.5h2.8V8.4z"/>
	<path class="st0" d="M204.9,4.5c-0.2,0-0.3,0-0.5,0c-0.7,0-1.1,0.3-1.3,0.8v4.1h-1V3.6h1l0,0.7c0.3-0.5,0.8-0.8,1.4-0.8
		c0.2,0,0.3,0,0.4,0.1V4.5z"/>
	<path class="st0" d="M205.4,6.5c0-0.6,0.1-1.1,0.3-1.5s0.5-0.8,0.9-1.1s0.9-0.4,1.4-0.4c0.8,0,1.4,0.3,1.9,0.8
		c0.5,0.5,0.7,1.3,0.7,2.2v0.1c0,0.6-0.1,1.1-0.3,1.5c-0.2,0.4-0.5,0.8-0.9,1c-0.4,0.3-0.9,0.4-1.4,0.4c-0.8,0-1.4-0.3-1.9-0.8
		C205.7,8.1,205.4,7.4,205.4,6.5L205.4,6.5z M206.4,6.6c0,0.6,0.1,1.2,0.4,1.6s0.7,0.6,1.2,0.6c0.5,0,0.9-0.2,1.2-0.6
		c0.3-0.4,0.4-1,0.4-1.7c0-0.6-0.2-1.2-0.5-1.5c-0.3-0.4-0.7-0.6-1.2-0.6c-0.5,0-0.9,0.2-1.2,0.6S206.4,5.8,206.4,6.6z"/>
	<path class="st0" d="M215.5,8.8c-0.4,0.5-1,0.7-1.7,0.7c-0.6,0-1.1-0.2-1.4-0.5c-0.3-0.4-0.5-0.9-0.5-1.6V3.6h1v3.8
		c0,0.9,0.4,1.3,1.1,1.3c0.8,0,1.3-0.3,1.5-0.8V3.6h1v5.8h-0.9L215.5,8.8z"/>
	<path class="st0" d="M222.9,6.6c0,0.9-0.2,1.6-0.6,2.1c-0.4,0.5-1,0.8-1.6,0.8c-0.7,0-1.3-0.2-1.7-0.7v2.8h-1v-8h0.9l0,0.6
		c0.4-0.5,1-0.8,1.7-0.8c0.7,0,1.3,0.3,1.7,0.8S222.9,5.5,222.9,6.6L222.9,6.6z M221.9,6.5c0-0.7-0.1-1.2-0.4-1.6s-0.7-0.6-1.1-0.6
		c-0.6,0-1.1,0.3-1.4,0.8v2.8c0.3,0.5,0.8,0.8,1.4,0.8c0.5,0,0.9-0.2,1.1-0.6C221.8,7.8,221.9,7.2,221.9,6.5z"/>
	<path class="st0" d="M224.2,8.9c0-0.2,0.1-0.3,0.2-0.4c0.1-0.1,0.3-0.2,0.5-0.2s0.4,0.1,0.5,0.2s0.2,0.3,0.2,0.4
		c0,0.2-0.1,0.3-0.2,0.4s-0.3,0.2-0.5,0.2s-0.4-0.1-0.5-0.2C224.3,9.2,224.2,9.1,224.2,8.9z"/>
</g>
</svg>
